<svg data-v-6805eed4="" version="1.0" xmlns="http://www.w3.org/2000/svg" xmlns:xlink="http://www.w3.org/1999/xlink"
  width="100%" height="100%" viewBox="0 0 340.000000 250.000000" preserveAspectRatio="xMidYMid meet"
  color-interpolation-filters="sRGB" style="margin: auto;">
  <rect data-v-6805eed4="" x="0" y="0" width="100%" height="100%" fill="#fff" fill-opacity="0" class="background">
  </rect>
  <rect data-v-6805eed4="" x="0" y="0" width="100%" height="100%" fill="url(#watermark)" fill-opacity="1"
    class="watermarklayer"></rect>
  <g data-v-6805eed4="" fill="#165DFF" class="icon-text-wrapper icon-svg-group iconsvg"
    transform="translate(77.11000061035156,95.46575355529785)">
    <g class="iconsvg-imagesvg" transform="matrix(1,0,0,1,0,0)" opacity="1">
      <g>
        <rect fill="#165DFF" fill-opacity="0" stroke-width="2" x="0" y="0" width="60" height="59.06848991405534"
          class="image-rect"></rect> <svg x="0" y="0" width="60" height="59.06848991405534" filtersec="colorsb36899500"
          class="image-svg-svg primary" style="overflow: visible;"><svg xmlns="http://www.w3.org/2000/svg"
            viewBox="0.4385022521018982 -0.000009216904800268821 101.5615005493164 99.98497772216797">
            <path
              d="M69.3 59.41l-9.89 9.89L51 77.73 30.46 98.26A6 6 0 0 1 22 89.83L42.56 69.3 51 60.88l9.9-9.9zM102 24.28a6 6 0 0 1-1.75 4.21L77.72 51l-8.42-8.44 22.5-22.5a6 6 0 0 1 10.2 4.22z"
              fill="#165DFF"></path>
            <path
              d="M83.64 6a5.94 5.94 0 0 1-1.74 4.21L41.08 51l-8.42-8.42 9.9-9.89L51 24.24 73.48 1.75A6 6 0 0 1 83.64 6zM32.66 59.41L12.13 79.93a6 6 0 0 1-8.42-8.42L24.24 51z"
              fill="#00dac7"></path>
            <path
              d="M51 24.24l-8.42 8.43-22.5-22.5A6 6 0 0 1 24.28 0a5.89 5.89 0 0 1 4.2 1.75zM98.25 79.93a5.94 5.94 0 0 1-8.42 0L51 41.09l8.42-8.42 9.9 9.89 8.4 8.44 20.53 20.51a6 6 0 0 1 0 8.42z"
              fill="#00baec"></path>
            <path
              d="M51 60.88l-8.44 8.42L1.74 28.49a6 6 0 0 1 8.43-8.43l22.49 22.5L41.08 51zM79.93 98.26a6 6 0 0 1-8.42 0L51 77.73l8.42-8.43 20.51 20.53a6 6 0 0 1 0 8.43z"
              fill="#3491FC"></path>
          </svg></svg>
        <!---->
      </g>
    </g>
    <g transform="translate(75,6.809606552124023)">
      <g data-gra="path-name" fill-rule="" class="tp-name iconsvg-namesvg" transform="matrix(1,0,0,1,0,0)" opacity="1">
        <g transform="scale(1)">
          <g>
            <path
              d="M17.16-4.29L17.16-4.29Q17.39-4.29 17.58-4.1L17.58-4.1 18.68-2.9Q17.4-1.42 15.58-0.59 13.77 0.23 11.2 0.23L11.2 0.23Q8.96 0.23 7.13-0.54 5.3-1.32 4.01-2.72 2.72-4.12 2.01-6.07 1.3-8.03 1.3-10.38L1.3-10.38Q1.3-12.72 2.06-14.68 2.83-16.64 4.2-18.04 5.58-19.45 7.5-20.22 9.42-21 11.74-21L11.74-21Q14.03-21 15.69-20.29 17.35-19.58 18.63-18.36L18.63-18.36 17.72-17.07Q17.62-16.92 17.49-16.83 17.36-16.74 17.11-16.74L17.11-16.74Q16.92-16.74 16.71-16.87 16.5-17.01 16.21-17.21 15.92-17.42 15.53-17.65 15.14-17.88 14.61-18.08 14.07-18.29 13.36-18.42 12.65-18.56 11.72-18.56L11.72-18.56Q10.06-18.56 8.67-17.99 7.29-17.42 6.29-16.36 5.29-15.3 4.73-13.78 4.17-12.26 4.17-10.38L4.17-10.38Q4.17-8.43 4.73-6.91 5.29-5.39 6.25-4.34 7.22-3.29 8.53-2.74 9.85-2.19 11.37-2.19L11.37-2.19Q12.3-2.19 13.04-2.3 13.78-2.41 14.41-2.64 15.04-2.87 15.58-3.22 16.13-3.58 16.68-4.07L16.68-4.07Q16.92-4.29 17.16-4.29ZM27.91-14.91L27.91-14.91Q29.52-14.91 30.81-14.37 32.11-13.84 33.02-12.85 33.92-11.87 34.41-10.47 34.89-9.07 34.89-7.35L34.89-7.35Q34.89-5.61 34.41-4.22 33.92-2.83 33.02-1.84 32.11-0.85 30.81-0.33 29.52 0.2 27.91 0.2L27.91 0.2Q26.3 0.2 25-0.33 23.71-0.85 22.79-1.84 21.88-2.83 21.39-4.22 20.9-5.61 20.9-7.35L20.9-7.35Q20.9-9.07 21.39-10.47 21.88-11.87 22.79-12.85 23.71-13.84 25-14.37 26.3-14.91 27.91-14.91ZM27.91-1.81L27.91-1.81Q30.08-1.81 31.15-3.27 32.23-4.72 32.23-7.33L32.23-7.33Q32.23-9.95 31.15-11.42 30.08-12.88 27.91-12.88L27.91-12.88Q26.81-12.88 26-12.51 25.18-12.13 24.64-11.42 24.1-10.71 23.83-9.67 23.56-8.64 23.56-7.33L23.56-7.33Q23.56-6.03 23.83-5 24.1-3.97 24.64-3.27 25.18-2.56 26-2.19 26.81-1.81 27.91-1.81ZM38.37-21.34L40.95-21.34 40.95 0 38.37 0 38.37-21.34ZM45.79-21.34L48.37-21.34 48.37 0 45.79 0 45.79-21.34ZM58.73-14.91L58.73-14.91Q60.05-14.91 61.16-14.47 62.28-14.03 63.09-13.19 63.9-12.36 64.36-11.14 64.82-9.91 64.82-8.35L64.82-8.35Q64.82-7.74 64.69-7.54 64.55-7.33 64.19-7.33L64.19-7.33 54.43-7.33Q54.45-5.94 54.8-4.91 55.15-3.88 55.76-3.2 56.37-2.51 57.21-2.17 58.05-1.83 59.09-1.83L59.09-1.83Q60.06-1.83 60.77-2.05 61.47-2.27 61.98-2.54 62.48-2.8 62.82-3.02 63.16-3.25 63.41-3.25L63.41-3.25Q63.73-3.25 63.9-3L63.9-3 64.63-2.06Q64.15-1.48 63.48-1.05 62.82-0.62 62.06-0.35 61.29-0.07 60.48 0.07 59.67 0.2 58.87 0.2L58.87 0.2Q57.35 0.2 56.07-0.31 54.79-0.83 53.85-1.82 52.92-2.81 52.4-4.27 51.88-5.74 51.88-7.64L51.88-7.64Q51.88-9.17 52.35-10.51 52.82-11.84 53.7-12.82 54.59-13.79 55.86-14.35 57.14-14.91 58.73-14.91ZM58.79-13.01L58.79-13.01Q56.92-13.01 55.85-11.93 54.77-10.85 54.51-8.94L54.51-8.94 62.5-8.94Q62.5-9.84 62.25-10.59 62-11.33 61.53-11.87 61.05-12.42 60.36-12.72 59.67-13.01 58.79-13.01ZM78.8-13L78.12-12.07Q78-11.91 77.89-11.82 77.77-11.74 77.55-11.74L77.55-11.74Q77.34-11.74 77.08-11.92 76.83-12.1 76.44-12.32 76.05-12.53 75.49-12.72 74.93-12.9 74.12-12.9L74.12-12.9Q73.05-12.9 72.22-12.51 71.39-12.13 70.84-11.4 70.28-10.68 70-9.65 69.71-8.62 69.71-7.35L69.71-7.35Q69.71-6.01 70.02-4.98 70.32-3.94 70.87-3.24 71.42-2.54 72.21-2.17 73-1.8 73.99-1.8L73.99-1.8Q74.93-1.8 75.54-2.02 76.15-2.25 76.55-2.52 76.96-2.8 77.22-3.02 77.48-3.25 77.74-3.25L77.74-3.25Q78.07-3.25 78.23-3L78.23-3 78.96-2.06Q78-0.88 76.57-0.34 75.13 0.2 73.54 0.2L73.54 0.2Q72.16 0.2 70.98-0.3 69.8-0.81 68.93-1.78 68.06-2.74 67.56-4.14 67.06-5.55 67.06-7.35L67.06-7.35Q67.06-8.98 67.52-10.38 67.97-11.77 68.85-12.77 69.73-13.78 71.02-14.35 72.31-14.91 73.97-14.91L73.97-14.91Q75.51-14.91 76.7-14.41 77.89-13.91 78.8-13L78.8-13ZM86.09 0.23L86.09 0.23Q84.35 0.23 83.41-0.74 82.48-1.71 82.48-3.54L82.48-3.54 82.48-12.52 80.71-12.52Q80.48-12.52 80.32-12.66 80.16-12.8 80.16-13.08L80.16-13.08 80.16-14.11 82.57-14.42 83.16-18.95Q83.19-19.17 83.35-19.31 83.51-19.45 83.75-19.45L83.75-19.45 85.06-19.45 85.06-14.39 89.26-14.39 89.26-12.52 85.06-12.52 85.06-3.71Q85.06-2.78 85.51-2.33 85.96-1.88 86.67-1.88L86.67-1.88Q87.07-1.88 87.37-1.99 87.67-2.1 87.88-2.23 88.1-2.36 88.25-2.47 88.41-2.58 88.52-2.58L88.52-2.58Q88.72-2.58 88.88-2.33L88.88-2.33 89.64-1.1Q88.97-0.48 88.03-0.12 87.09 0.23 86.09 0.23ZM92.74-14.68L95.32-14.68 95.32 0 92.74 0 92.74-14.68ZM95.9-19.29L95.9-19.29Q95.9-18.91 95.75-18.58 95.59-18.26 95.34-18 95.09-17.75 94.75-17.61 94.42-17.46 94.04-17.46L94.04-17.46Q93.67-17.46 93.34-17.61 93.01-17.75 92.76-18 92.51-18.26 92.36-18.58 92.22-18.91 92.22-19.29L92.22-19.29Q92.22-19.66 92.36-20 92.51-20.34 92.76-20.6 93.01-20.85 93.34-21 93.67-21.14 94.04-21.14L94.04-21.14Q94.42-21.14 94.75-21 95.09-20.85 95.34-20.6 95.59-20.34 95.75-20 95.9-19.66 95.9-19.29ZM102.45 0L99.87 0 99.87-14.68 101.4-14.68Q101.95-14.68 102.1-14.14L102.1-14.14 102.3-12.55Q103.26-13.61 104.44-14.26 105.62-14.91 107.17-14.91L107.17-14.91Q108.37-14.91 109.29-14.51 110.21-14.11 110.83-13.38 111.45-12.65 111.76-11.62 112.08-10.59 112.08-9.35L112.08-9.35 112.08 0 109.5 0 109.5-9.35Q109.5-11.01 108.74-11.93 107.98-12.85 106.42-12.85L106.42-12.85Q105.27-12.85 104.28-12.3 103.29-11.75 102.45-10.81L102.45-10.81 102.45 0Z"
              transform="translate(-1.2999999523162842, 21.34000015258789)"></path>
          </g>
          <!---->
          <!---->
          <!---->
          <!---->
          <!---->
          <!---->
          <!---->
        </g>
      </g>
      <g data-gra="path-slogan" fill-rule="" class="tp-slogan iconsvg-slogansvg" fill="#333333"
        transform="matrix(1,0,0,1,5,30.56999969482422)" opacity="1">
        <rect x="0" height="1" y="8.442798614501953" width="9.34609603881836"></rect>
        <rect height="1" y="8.442798614501953" width="9.34609603881836" x="91.43390274047852"></rect>
        <g transform="translate(12.34609603881836,0)">
          <g transform="scale(1.5800000000000005)">
            <path
              d="M2.51-1.25L3.66-9.85L3.66-9.85L1.99-9.85Q1.80-9.85 1.65-9.71Q1.50-9.58 1.46-9.37L1.46-9.37L0.34-1.03Q0.26-0.48 0.56-0.23L0.56-0.23Q0.88 0.04 1.37-0.02L1.37-0.02L3.37-0.24L3.18 1.20L5.58 1.20L7.10-10.12L5.17-10.12Q4.97-10.12 4.82-9.98Q4.67-9.84 4.64-9.62L4.64-9.62L3.49-1.15L2.69-1.07Q2.60-1.06 2.54-1.10L2.54-1.10Q2.50-1.15 2.51-1.25L2.51-1.25ZM10.16-1.06L10.19-1.01L10.19-1.01Q11.59 1.20 13.87 1.20L13.87 1.20L13.93 1.20L11.54-3.10L14.92-8.18L12.68-8.18Q12.35-8.18 12.13-7.87L12.13-7.87L10.27-4.78L9.79-5.64Q9.65-5.87 9.42-5.87L9.42-5.87L7.15-5.87L8.95-3.22L6.01 1.20L6.10 1.20Q8.51 1.20 10.12-1.00L10.12-1.00L10.16-1.06ZM10.49-9.52L10.73-10.12L10.73-10.12L8.72-10.12Q8.41-10.12 8.27-9.78L8.27-9.78L7.07-6.30L7.07-6.30Q9.04-6.30 10.06-8.38L10.06-8.38L10.13-8.56L14.27-8.56Q14.66-8.56 14.96-8.83Q15.25-9.10 15.32-9.52L15.32-9.52L15.32-9.52L10.49-9.52ZM25.06-5.53L24.63-5.53L24.63-5.53L24.75-6.49L27.56-6.49L27.50-6.04Q27.46-5.82 27.30-5.68Q27.15-5.53 26.94-5.53L26.94-5.53L26.66-5.53L26.52-4.56L27.27-4.56L26.97-2.27Q26.91-1.85 26.68-1.60L26.68-1.60Q26.45-1.33 26.09-1.26L26.09-1.26L25.91 0.08L26.25 0.08Q26.42 0.08 26.52 0.22Q26.63 0.35 26.62 0.53L26.62 0.53L26.55 1.03L22.47 1.03Q22.01 1.03 21.74 0.70L21.74 0.70Q21.46 0.35 21.53-0.13L21.53-0.13L22.38-6.49L24.54-6.49L24.41-5.53L24.38-5.28L24.28-4.56L24.16-3.60L24.09-3.10L23.97-2.20L24.87-2.20Q24.99-2.20 25.08-2.29L25.08-2.29Q25.18-2.38 25.19-2.50L25.19-2.50L25.34-3.60L24.36-3.60L24.50-4.56L24.93-4.56L25.06-5.53ZM23.94 0.08L24.30 0.08L24.30 0.08L24.48-1.25L23.84-1.25L23.70-0.20Q23.68-0.10 23.75 0L23.75 0Q23.82 0.08 23.94 0.08L23.94 0.08ZM29.88-10.12L29.85-9.83L29.85-9.83L31.98-9.83L31.91-9.36Q31.88-9.12 31.71-8.97Q31.54-8.82 31.31-8.82L31.31-8.82L29.70-8.82L29.70-8.82Q29.69-8.72 29.63-8.67Q29.57-8.62 29.49-8.62L29.49-8.62L27.30-8.62L27.34-8.82L22.83-8.82L22.82-8.72Q22.80-8.64 22.74-8.58Q22.68-8.52 22.59-8.52L22.59-8.52L20.42-8.52L20.45-8.82L18.18-8.82L18.24-9.28Q18.28-9.52 18.45-9.67Q18.62-9.83 18.84-9.83L18.84-9.83L20.60-9.83L20.61-9.91Q20.62-10.01 20.68-10.06Q20.74-10.12 20.82-10.12L20.82-10.12L23.01-10.12L22.96-9.83L27.47-9.83L27.48-9.91Q27.50-10.01 27.56-10.06Q27.63-10.12 27.71-10.12L27.71-10.12L29.88-10.12ZM30.17-8.33L31.06-8.33L31.06-8.33Q31.25-8.33 31.38-8.19Q31.50-8.05 31.50-7.84L31.50-7.84L31.50-7.84L31.70-7.84L31.67-7.63Q31.62-7.30 31.40-7.09Q31.17-6.89 30.86-6.89L30.86-6.89L29.97-6.89L30.22-3.18L31.13-3.59L31.02-2.83Q30.96-2.46 30.64-2.29L30.64-2.29L30.28-2.12L30.46 1.20L29.75 1.20Q29.10 1.20 28.65 0.74Q28.19 0.29 28.13-0.40L28.13-0.40L28.10-1.14L27.11-0.71L27.22-1.45Q27.28-1.82 27.60-1.99L27.60-1.99L28.04-2.18L27.74-6.89L22.40-6.89L22.53-7.84L27.68-7.84L27.65-8.33L29.88-8.33L29.91-7.84L30.15-7.84L30.17-8.33ZM19.17-5.17L19.47-5.17L19.47-5.17L19.83-7.84L22.11-7.84L21.99-6.89L21.95-6.65L21.04 0.16Q20.98 0.59 20.66 0.89L20.66 0.89Q20.33 1.19 19.92 1.19L19.92 1.19L16.83 1.19L16.86 0.96Q16.91 0.64 17.13 0.43Q17.36 0.23 17.66 0.23L17.66 0.23L18.46 0.23Q18.58 0.23 18.68 0.14L18.68 0.14Q18.77 0.06 18.78-0.06L18.78-0.06L19.12-2.60L18.77-2.60L18.40-1.04Q18.30-0.64 18.00-0.38Q17.69-0.13 17.31-0.13L17.31-0.13L16.91-0.13L17.49-2.60L17.20-2.60L17.27-3.16Q17.30-3.34 17.42-3.45Q17.55-3.56 17.72-3.56L17.72-3.56L19.25-3.56L19.34-4.22L18.28-4.22Q17.87-4.22 17.70-4.45L17.70-4.45Q17.55-4.67 17.60-5.10L17.60-5.10L17.85-6.95Q17.91-7.34 18.19-7.60Q18.47-7.86 18.86-7.86L18.86-7.86L19.30-7.86L18.96-5.41Q18.94-5.17 19.17-5.17L19.17-5.17ZM37.88-9.53L38.18-10.12L38.18-10.12L36.04-10.12Q35.76-10.12 35.60-9.83L35.60-9.83L34.46-7.51L35.14-7.51L34.63-3.65L37.02-3.65L37.05-3.90L47.11-3.90Q47.37-3.90 47.56-4.08Q47.76-4.26 47.80-4.54L47.80-4.54L47.83-4.76L43.34-4.76L43.44-5.47L47.19-5.47Q47.46-5.47 47.65-5.65Q47.84-5.83 47.89-6.11L47.89-6.11L47.91-6.34L43.54-6.34L43.66-7.20L47.42-7.20Q47.68-7.20 47.88-7.38Q48.08-7.56 48.12-7.84L48.12-7.84L48.15-8.06L43.78-8.06L43.87-8.74L47.76-8.74Q48.02-8.74 48.21-8.91Q48.40-9.08 48.45-9.36L48.45-9.36L48.48-9.53L43.95-9.53L43.95-9.56Q43.94-9.80 43.79-9.96Q43.64-10.12 43.42-10.12L43.42-10.12L41.54-10.12L41.53-9.53L37.88-9.53ZM42.18-3.29L42.24-3.70L42.24-3.70L40.05-3.70Q39.97-3.70 39.90-3.64Q39.84-3.58 39.81-3.48L39.81-3.48L39.79-3.29L34.65-3.29Q34.44-3.29 34.28-3.14Q34.12-3 34.10-2.78L34.10-2.78L34.04-2.33L35.61-2.33L33.55 1.20L33.58 1.20Q35.77 1.20 37.16-0.91L37.16-0.91L37.98-2.33L39.67-2.33L39.19 1.20L41.11 1.20Q41.31 1.20 41.46 1.06Q41.61 0.92 41.65 0.71L41.65 0.71L42.06-2.33L43.74-2.33L44.14-1.02Q45.07 1.20 47.07 1.20L47.07 1.20L47.23 1.20L46.11-2.33L47.12-2.33Q47.32-2.33 47.48-2.47Q47.64-2.62 47.67-2.83L47.67-2.83L47.73-3.29L42.18-3.29ZM41.42-8.06L37.62-8.06L37.62-8.06L37.70-8.74L41.50-8.74L41.42-8.06ZM41.18-6.34L37.38-6.34L37.38-6.34L37.50-7.20L41.30-7.20L41.18-6.34ZM40.98-4.76L37.17-4.76L37.17-4.76L37.26-5.47L41.07-5.47L40.98-4.76Z"
              transform="translate(-0.32325000000000004, 10.116)"></path>
          </g>
        </g>
      </g>
    </g>
  </g>
  <defs v-gra="od"></defs>
</svg>