<svg version="1.0" xmlns="http://www.w3.org/2000/svg" xmlns:xlink="http://www.w3.org/1999/xlink" width="102"
  height="102" viewBox="0 0 102 102" preserveAspectRatio="xMidYMid meet" color-interpolation-filters="sRGB" fill="none">
  <rect x="0" y="0" width="100%" height="100%" fill="#fff" fill-opacity="0">
  </rect>
  <g fill="#165DFF">
    <g class="iconsvg-imagesvg" transform="matrix(1,0,0,1,0,0)" opacity="1">
      <g>
        <rect fill="#165DFF" fill-opacity="0" stroke-width="2" x="0" y="0" width="102" height="102"></rect> <svg x="0"
          y="0" width="102" height="102" filtersec="colorsb36899500"><svg xmlns="http://www.w3.org/2000/svg"
            viewBox="0 0 102 102">
            <path
              d="M69.3 59.41l-9.89 9.89L51 77.73 30.46 98.26A6 6 0 0 1 22 89.83L42.56 69.3 51 60.88l9.9-9.9zM102 24.28a6 6 0 0 1-1.75 4.21L77.72 51l-8.42-8.44 22.5-22.5a6 6 0 0 1 10.2 4.22z"
              fill="#165DFF"></path>
            <path
              d="M83.64 6a5.94 5.94 0 0 1-1.74 4.21L41.08 51l-8.42-8.42 9.9-9.89L51 24.24 73.48 1.75A6 6 0 0 1 83.64 6zM32.66 59.41L12.13 79.93a6 6 0 0 1-8.42-8.42L24.24 51z"
              fill="#00dac7"></path>
            <path
              d="M51 24.24l-8.42 8.43-22.5-22.5A6 6 0 0 1 24.28 0a5.89 5.89 0 0 1 4.2 1.75zM98.25 79.93a5.94 5.94 0 0 1-8.42 0L51 41.09l8.42-8.42 9.9 9.89 8.4 8.44 20.53 20.51a6 6 0 0 1 0 8.42z"
              fill="#00baec"></path>
            <path
              d="M51 60.88l-8.44 8.42L1.74 28.49a6 6 0 0 1 8.43-8.43l22.49 22.5L41.08 51zM79.93 98.26a6 6 0 0 1-8.42 0L51 77.73l8.42-8.43 20.51 20.53a6 6 0 0 1 0 8.43z"
              fill="#3491FC"></path>
          </svg></svg>
        <!---->
      </g>
    </g>
  </g>
</svg>